<svg xmlns="http://www.w3.org/2000/svg" xmlns:xlink="http://www.w3.org/1999/xlink" width="475" zoomAndPan="magnify" viewBox="0 0 356.25 37.5" height="50" preserveAspectRatio="xMidYMid meet" version="1.0"><defs><g/><clipPath id="86058edee3"><path d="M 6.742188 2.046875 L 34 2.046875 L 34 19.441406 L 6.742188 19.441406 Z M 6.742188 2.046875 " clip-rule="nonzero"/></clipPath><clipPath id="7f16ebe927"><path d="M 20.277344 19.273438 L 31.285156 12.917969 C 33.875 11.421875 34.761719 8.109375 33.265625 5.523438 C 31.769531 2.933594 28.460938 2.046875 25.871094 3.539062 L 6.851562 14.519531 Z M 20.277344 19.273438 " clip-rule="nonzero"/></clipPath><clipPath id="9908db086e"><path d="M 4 13 L 34 13 L 34 35.714844 L 4 35.714844 Z M 4 13 " clip-rule="nonzero"/></clipPath><clipPath id="541d44eef5"><path d="M 28.574219 35.601562 C 30.445312 35.601562 32.265625 34.632812 33.265625 32.894531 C 34.761719 30.304688 33.875 26.996094 31.285156 25.5 L 12.269531 14.519531 C 9.679688 13.023438 6.367188 13.910156 4.871094 16.5 C 3.375 19.089844 4.261719 22.402344 6.851562 23.898438 L 25.867188 34.878906 C 26.722656 35.371094 27.652344 35.605469 28.570312 35.605469 " clip-rule="nonzero"/></clipPath><clipPath id="99469076c9"><path d="M 38 19 L 65.625 19 L 65.625 35.714844 L 38 35.714844 Z M 38 19 " clip-rule="nonzero"/></clipPath><clipPath id="2e4b0663b6"><path d="M 43.757812 35.601562 C 44.675781 35.601562 45.605469 35.371094 46.460938 34.875 L 65.476562 23.898438 L 52.21875 19.046875 L 41.042969 25.5 C 38.453125 26.996094 37.566406 30.304688 39.0625 32.894531 C 40.066406 34.632812 41.886719 35.601562 43.757812 35.601562 " clip-rule="nonzero"/></clipPath><clipPath id="1ead914c49"><path d="M 38 2.046875 L 68.992188 2.046875 L 68.992188 24.773438 L 38 24.773438 Z M 38 2.046875 " clip-rule="nonzero"/></clipPath><clipPath id="dc79f58f19"><path d="M 62.765625 24.625 C 64.636719 24.625 66.457031 23.652344 67.457031 21.917969 C 68.953125 19.328125 68.066406 16.015625 65.476562 14.519531 L 46.460938 3.539062 C 43.871094 2.046875 40.558594 2.933594 39.0625 5.523438 C 37.566406 8.113281 38.453125 11.421875 41.042969 12.921875 L 60.0625 23.898438 C 60.914062 24.390625 61.847656 24.625 62.765625 24.625 " clip-rule="nonzero"/></clipPath></defs><g clip-path="url(#86058edee3)"><g clip-path="url(#7f16ebe927)"><path fill="#ea4335" d="M 1.972656 0.640625 L 36.203125 0.640625 L 36.203125 37.117188 L 1.972656 37.117188 Z M 1.972656 0.640625 " fill-opacity="1" fill-rule="nonzero"/></g></g><g clip-path="url(#9908db086e)"><g clip-path="url(#541d44eef5)"><path fill="#4285f4" d="M 1.972656 0.640625 L 36.203125 0.640625 L 36.203125 37.117188 L 1.972656 37.117188 Z M 1.972656 0.640625 " fill-opacity="1" fill-rule="nonzero"/></g></g><g clip-path="url(#99469076c9)"><g clip-path="url(#2e4b0663b6)"><path fill="#fbbc04" d="M 36.164062 0.640625 L 70.398438 0.640625 L 70.398438 37.117188 L 36.164062 37.117188 Z M 36.164062 0.640625 " fill-opacity="1" fill-rule="nonzero"/></g></g><g clip-path="url(#1ead914c49)"><g clip-path="url(#dc79f58f19)"><path fill="#0f9d58" d="M 36.164062 0.640625 L 70.398438 0.640625 L 70.398438 37.117188 L 36.164062 37.117188 Z M 36.164062 0.640625 " fill-opacity="1" fill-rule="nonzero"/></g></g><g fill="#ffffff" fill-opacity="1"><g transform="translate(85.791827, 15.080923)"><g><path d="M 6.539062 0.222656 C 7.828125 0.222656 9.230469 -0.160156 10.074219 -1.367188 L 10.074219 0 L 12.15625 0 L 12.15625 -6.605469 L 7.191406 -6.605469 L 7.191406 -4.710938 L 9.882812 -4.710938 C 9.832031 -2.800781 8.640625 -1.828125 6.730469 -1.828125 C 4.25 -1.828125 3.007812 -3.644531 3.007812 -6.09375 C 3.007812 -8.464844 4.199219 -10.3125 6.523438 -10.3125 C 8.132812 -10.3125 9.132812 -9.59375 9.53125 -8.339844 L 12.046875 -8.339844 C 11.550781 -10.742188 9.675781 -12.363281 6.539062 -12.363281 C 2.464844 -12.363281 0.621094 -9.386719 0.621094 -6.078125 C 0.621094 -2.769531 2.464844 0.222656 6.539062 0.222656 Z M 6.539062 0.222656 "/></g></g></g><g fill="#ffffff" fill-opacity="1"><g transform="translate(98.839678, 15.080923)"><g><path d="M 5.171875 0.175781 C 7.910156 0.175781 9.753906 -1.734375 9.753906 -4.519531 C 9.753906 -7.207031 7.875 -9.117188 5.171875 -9.117188 C 2.464844 -9.117188 0.605469 -7.222656 0.605469 -4.519531 C 0.605469 -1.71875 2.480469 0.175781 5.171875 0.175781 Z M 5.171875 -1.671875 C 3.789062 -1.671875 2.800781 -2.816406 2.800781 -4.519531 C 2.800781 -6.125 3.789062 -7.273438 5.171875 -7.273438 C 6.585938 -7.273438 7.527344 -6.109375 7.527344 -4.519531 C 7.527344 -2.847656 6.570312 -1.671875 5.171875 -1.671875 Z M 5.171875 -1.671875 "/></g></g></g><g fill="#ffffff" fill-opacity="1"><g transform="translate(109.230224, 15.080923)"><g><path d="M 5.171875 0.175781 C 7.910156 0.175781 9.753906 -1.734375 9.753906 -4.519531 C 9.753906 -7.207031 7.875 -9.117188 5.171875 -9.117188 C 2.464844 -9.117188 0.605469 -7.222656 0.605469 -4.519531 C 0.605469 -1.71875 2.480469 0.175781 5.171875 0.175781 Z M 5.171875 -1.671875 C 3.789062 -1.671875 2.800781 -2.816406 2.800781 -4.519531 C 2.800781 -6.125 3.789062 -7.273438 5.171875 -7.273438 C 6.585938 -7.273438 7.527344 -6.109375 7.527344 -4.519531 C 7.527344 -2.847656 6.570312 -1.671875 5.171875 -1.671875 Z M 5.171875 -1.671875 "/></g></g></g><g fill="#ffffff" fill-opacity="1"><g transform="translate(119.62077, 15.080923)"><g><path d="M 5.074219 3.390625 C 7.429688 3.390625 9.277344 2.5 9.277344 -0.574219 L 9.277344 -8.925781 L 7.128906 -8.925781 L 7.128906 -7.796875 C 6.414062 -8.800781 5.648438 -9.117188 4.582031 -9.117188 C 2.257812 -9.117188 0.667969 -7.207031 0.667969 -4.535156 C 0.667969 -1.925781 2.257812 -0.015625 4.582031 -0.015625 C 5.632812 -0.015625 6.398438 -0.300781 7.128906 -1.320312 L 7.128906 -0.0625 C 7.128906 0.96875 6.523438 1.71875 5.058594 1.71875 C 4.011719 1.71875 3.375 1.351562 3.101562 0.476562 L 0.9375 0.476562 C 1.320312 2.785156 3.246094 3.390625 5.074219 3.390625 Z M 5.09375 -1.863281 C 3.707031 -1.863281 2.832031 -3.039062 2.832031 -4.566406 C 2.832031 -6.09375 3.707031 -7.273438 5.09375 -7.273438 C 6.445312 -7.273438 7.398438 -6.125 7.398438 -4.566406 C 7.398438 -3.007812 6.445312 -1.863281 5.09375 -1.863281 Z M 5.09375 -1.863281 "/></g></g></g><g fill="#ffffff" fill-opacity="1"><g transform="translate(129.884022, 15.080923)"><g><path d="M 4.390625 0 L 4.390625 -1.78125 L 3.820312 -1.78125 C 3.292969 -1.78125 3.085938 -1.988281 3.085938 -2.59375 L 3.085938 -12.140625 L 0.9375 -12.140625 L 0.9375 -1.957031 C 0.9375 -0.574219 1.6875 0 3.007812 0 Z M 4.390625 0 "/></g></g></g><g fill="#ffffff" fill-opacity="1"><g transform="translate(134.705362, 15.080923)"><g><path d="M 5.15625 0.175781 C 7.542969 0.175781 8.910156 -1.273438 9.4375 -3.007812 L 7.238281 -3.007812 C 6.953125 -2.277344 6.253906 -1.671875 5.234375 -1.671875 C 4.3125 -1.671875 3.582031 -2.148438 3.167969 -2.976562 C 3.007812 -3.246094 2.863281 -3.644531 2.832031 -4.027344 L 9.578125 -4.027344 L 9.578125 -4.488281 C 9.578125 -7.71875 7.398438 -9.117188 5.09375 -9.117188 C 2.035156 -9.117188 0.605469 -6.746094 0.605469 -4.40625 C 0.605469 -1.765625 2.417969 0.175781 5.15625 0.175781 Z M 2.929688 -5.632812 C 2.960938 -5.871094 3.039062 -6.175781 3.277344 -6.460938 C 3.691406 -7.097656 4.359375 -7.414062 5.15625 -7.414062 C 5.933594 -7.414062 6.636719 -7.097656 7.050781 -6.460938 C 7.273438 -6.191406 7.351562 -5.871094 7.382812 -5.632812 Z M 2.929688 -5.632812 "/></g></g></g><g fill="#ffffff" fill-opacity="1"><g transform="translate(144.904964, 15.080923)"><g/></g></g><g fill="#ffffff" fill-opacity="1"><g transform="translate(149.185304, 15.080923)"><g><path d="M 4.613281 0 C 8.703125 0 10.964844 -2.179688 10.964844 -6.0625 C 10.964844 -9.960938 8.71875 -12.140625 4.613281 -12.140625 L 1.082031 -12.140625 L 1.082031 0 Z M 3.375 -10.089844 L 4.597656 -10.089844 C 7.050781 -10.089844 8.671875 -8.878906 8.671875 -6.0625 C 8.671875 -3.054688 7 -2.050781 4.582031 -2.050781 L 3.375 -2.050781 Z M 3.375 -10.089844 "/></g></g></g><g fill="#ffffff" fill-opacity="1"><g transform="translate(160.785158, 15.080923)"><g><path d="M 5.15625 0.175781 C 7.542969 0.175781 8.910156 -1.273438 9.4375 -3.007812 L 7.238281 -3.007812 C 6.953125 -2.277344 6.253906 -1.671875 5.234375 -1.671875 C 4.3125 -1.671875 3.582031 -2.148438 3.167969 -2.976562 C 3.007812 -3.246094 2.863281 -3.644531 2.832031 -4.027344 L 9.578125 -4.027344 L 9.578125 -4.488281 C 9.578125 -7.71875 7.398438 -9.117188 5.09375 -9.117188 C 2.035156 -9.117188 0.605469 -6.746094 0.605469 -4.40625 C 0.605469 -1.765625 2.417969 0.175781 5.15625 0.175781 Z M 2.929688 -5.632812 C 2.960938 -5.871094 3.039062 -6.175781 3.277344 -6.460938 C 3.691406 -7.097656 4.359375 -7.414062 5.15625 -7.414062 C 5.933594 -7.414062 6.636719 -7.097656 7.050781 -6.460938 C 7.273438 -6.191406 7.351562 -5.871094 7.382812 -5.632812 Z M 2.929688 -5.632812 "/></g></g></g><g fill="#ffffff" fill-opacity="1"><g transform="translate(170.984755, 15.080923)"><g><path d="M 5.1875 0 L 8.496094 -8.925781 L 6.207031 -8.925781 L 4.328125 -3.292969 L 2.480469 -8.925781 L 0.191406 -8.925781 L 3.484375 0 Z M 5.1875 0 "/></g></g></g><g fill="#ffffff" fill-opacity="1"><g transform="translate(179.688626, 15.080923)"><g><path d="M 5.15625 0.175781 C 7.542969 0.175781 8.910156 -1.273438 9.4375 -3.007812 L 7.238281 -3.007812 C 6.953125 -2.277344 6.253906 -1.671875 5.234375 -1.671875 C 4.3125 -1.671875 3.582031 -2.148438 3.167969 -2.976562 C 3.007812 -3.246094 2.863281 -3.644531 2.832031 -4.027344 L 9.578125 -4.027344 L 9.578125 -4.488281 C 9.578125 -7.71875 7.398438 -9.117188 5.09375 -9.117188 C 2.035156 -9.117188 0.605469 -6.746094 0.605469 -4.40625 C 0.605469 -1.765625 2.417969 0.175781 5.15625 0.175781 Z M 2.929688 -5.632812 C 2.960938 -5.871094 3.039062 -6.175781 3.277344 -6.460938 C 3.691406 -7.097656 4.359375 -7.414062 5.15625 -7.414062 C 5.933594 -7.414062 6.636719 -7.097656 7.050781 -6.460938 C 7.273438 -6.191406 7.351562 -5.871094 7.382812 -5.632812 Z M 2.929688 -5.632812 "/></g></g></g><g fill="#ffffff" fill-opacity="1"><g transform="translate(189.888222, 15.080923)"><g><path d="M 4.390625 0 L 4.390625 -1.78125 L 3.820312 -1.78125 C 3.292969 -1.78125 3.085938 -1.988281 3.085938 -2.59375 L 3.085938 -12.140625 L 0.9375 -12.140625 L 0.9375 -1.957031 C 0.9375 -0.574219 1.6875 0 3.007812 0 Z M 4.390625 0 "/></g></g></g><g fill="#ffffff" fill-opacity="1"><g transform="translate(194.709558, 15.080923)"><g><path d="M 5.171875 0.175781 C 7.910156 0.175781 9.753906 -1.734375 9.753906 -4.519531 C 9.753906 -7.207031 7.875 -9.117188 5.171875 -9.117188 C 2.464844 -9.117188 0.605469 -7.222656 0.605469 -4.519531 C 0.605469 -1.71875 2.480469 0.175781 5.171875 0.175781 Z M 5.171875 -1.671875 C 3.789062 -1.671875 2.800781 -2.816406 2.800781 -4.519531 C 2.800781 -6.125 3.789062 -7.273438 5.171875 -7.273438 C 6.585938 -7.273438 7.527344 -6.109375 7.527344 -4.519531 C 7.527344 -2.847656 6.570312 -1.671875 5.171875 -1.671875 Z M 5.171875 -1.671875 "/></g></g></g><g fill="#ffffff" fill-opacity="1"><g transform="translate(205.100101, 15.080923)"><g><path d="M 5.664062 -9.101562 C 4.613281 -9.101562 3.851562 -8.800781 3.132812 -7.796875 L 3.132812 -8.925781 L 0.988281 -8.925781 L 0.988281 3.214844 L 3.132812 3.214844 L 3.132812 -1.128906 C 3.851562 -0.113281 4.613281 0.191406 5.664062 0.191406 C 8.003906 0.191406 9.59375 -1.71875 9.59375 -4.457031 C 9.59375 -7.191406 8.003906 -9.101562 5.664062 -9.101562 Z M 5.171875 -7.257812 C 6.539062 -7.257812 7.429688 -6.078125 7.429688 -4.457031 C 7.429688 -2.832031 6.539062 -1.65625 5.171875 -1.65625 C 3.804688 -1.65625 2.863281 -2.800781 2.863281 -4.457031 C 2.863281 -6.109375 3.804688 -7.257812 5.171875 -7.257812 Z M 5.171875 -7.257812 "/></g></g></g><g fill="#ffffff" fill-opacity="1"><g transform="translate(215.347435, 15.080923)"><g><path d="M 5.15625 0.175781 C 7.542969 0.175781 8.910156 -1.273438 9.4375 -3.007812 L 7.238281 -3.007812 C 6.953125 -2.277344 6.253906 -1.671875 5.234375 -1.671875 C 4.3125 -1.671875 3.582031 -2.148438 3.167969 -2.976562 C 3.007812 -3.246094 2.863281 -3.644531 2.832031 -4.027344 L 9.578125 -4.027344 L 9.578125 -4.488281 C 9.578125 -7.71875 7.398438 -9.117188 5.09375 -9.117188 C 2.035156 -9.117188 0.605469 -6.746094 0.605469 -4.40625 C 0.605469 -1.765625 2.417969 0.175781 5.15625 0.175781 Z M 2.929688 -5.632812 C 2.960938 -5.871094 3.039062 -6.175781 3.277344 -6.460938 C 3.691406 -7.097656 4.359375 -7.414062 5.15625 -7.414062 C 5.933594 -7.414062 6.636719 -7.097656 7.050781 -6.460938 C 7.273438 -6.191406 7.351562 -5.871094 7.382812 -5.632812 Z M 2.929688 -5.632812 "/></g></g></g><g fill="#ffffff" fill-opacity="1"><g transform="translate(225.547031, 15.080923)"><g><path d="M 3.117188 0 L 3.117188 -4.136719 C 3.117188 -5.316406 3.359375 -6.03125 3.835938 -6.507812 C 4.183594 -6.84375 4.695312 -7.050781 5.425781 -7.050781 L 5.917969 -7.050781 L 5.917969 -9.117188 L 5.664062 -9.117188 C 4.613281 -9.117188 3.804688 -8.800781 3.117188 -7.859375 L 3.117188 -8.925781 L 0.96875 -8.925781 L 0.96875 0 Z M 3.117188 0 "/></g></g></g><g fill="#ffffff" fill-opacity="1"><g transform="translate(231.784535, 15.080923)"><g/></g></g><g fill="#ffffff" fill-opacity="1"><g transform="translate(236.06487, 15.080923)"><g><path d="M 5.902344 0.222656 C 8.769531 0.222656 10.4375 -1.226562 10.4375 -3.515625 C 10.4375 -6.269531 8.035156 -6.8125 6.015625 -7.257812 C 4.535156 -7.589844 3.230469 -7.875 3.230469 -8.992188 C 3.230469 -9.914062 4.058594 -10.40625 5.203125 -10.40625 C 6.445312 -10.40625 7.480469 -9.816406 7.78125 -8.527344 L 10.121094 -8.527344 C 9.738281 -11.15625 7.589844 -12.363281 5.25 -12.363281 C 2.800781 -12.363281 0.953125 -11.140625 0.953125 -8.800781 C 0.953125 -6.238281 3.214844 -5.746094 5.203125 -5.300781 C 6.746094 -4.964844 8.132812 -4.664062 8.132812 -3.40625 C 8.132812 -2.242188 7.175781 -1.734375 5.917969 -1.734375 C 4.644531 -1.734375 3.324219 -2.210938 2.929688 -3.945312 L 0.558594 -3.945312 C 0.859375 -0.8125 3.5625 0.222656 5.902344 0.222656 Z M 5.902344 0.222656 "/></g></g></g><g fill="#ffffff" fill-opacity="1"><g transform="translate(247.15554, 15.080923)"><g><path d="M 5.539062 0 L 5.539062 -1.78125 L 4.566406 -1.78125 C 3.898438 -1.78125 3.835938 -2.148438 3.835938 -2.609375 L 3.835938 -7.207031 L 5.554688 -7.207031 L 5.554688 -8.925781 L 3.835938 -8.925781 L 3.835938 -12.140625 L 1.6875 -12.140625 L 1.6875 -8.925781 L 0.367188 -8.925781 L 0.367188 -7.207031 L 1.6875 -7.207031 L 1.6875 -1.957031 C 1.6875 -0.574219 2.449219 0 3.769531 0 Z M 5.539062 0 "/></g></g></g><g fill="#ffffff" fill-opacity="1"><g transform="translate(253.265748, 15.080923)"><g><path d="M 4.089844 0.175781 C 5.140625 0.175781 5.855469 -0.207031 6.507812 -1.128906 L 6.507812 0 L 8.65625 0 L 8.65625 -8.925781 L 6.507812 -8.925781 L 6.507812 -4.390625 C 6.507812 -3.214844 6.363281 -2.5625 6 -2.132812 C 5.695312 -1.765625 5.25 -1.589844 4.628906 -1.589844 C 4.121094 -1.589844 3.753906 -1.71875 3.5 -1.988281 C 3.199219 -2.324219 3.070312 -2.847656 3.070312 -3.769531 L 3.070312 -8.925781 L 0.921875 -8.925781 L 0.921875 -3.789062 C 0.921875 -2.5 1.019531 -1.894531 1.304688 -1.304688 C 1.78125 -0.316406 2.707031 0.175781 4.089844 0.175781 Z M 4.089844 0.175781 "/></g></g></g><g fill="#ffffff" fill-opacity="1"><g transform="translate(262.924335, 15.080923)"><g><path d="M 4.566406 0.175781 C 5.617188 0.175781 6.382812 -0.128906 7.097656 -1.128906 L 7.097656 0 L 9.246094 0 L 9.246094 -12.140625 L 7.097656 -12.140625 L 7.097656 -7.796875 C 6.382812 -8.816406 5.617188 -9.117188 4.566406 -9.117188 C 2.226562 -9.117188 0.636719 -7.207031 0.636719 -4.472656 C 0.636719 -1.734375 2.226562 0.175781 4.566406 0.175781 Z M 5.058594 -1.671875 C 3.691406 -1.671875 2.800781 -2.847656 2.800781 -4.472656 C 2.800781 -6.09375 3.691406 -7.273438 5.058594 -7.273438 C 6.429688 -7.273438 7.367188 -6.125 7.367188 -4.472656 C 7.367188 -2.816406 6.429688 -1.671875 5.058594 -1.671875 Z M 5.058594 -1.671875 "/></g></g></g><g fill="#ffffff" fill-opacity="1"><g transform="translate(273.171678, 15.080923)"><g><path d="M 5.15625 0.175781 C 7.542969 0.175781 8.910156 -1.273438 9.4375 -3.007812 L 7.238281 -3.007812 C 6.953125 -2.277344 6.253906 -1.671875 5.234375 -1.671875 C 4.3125 -1.671875 3.582031 -2.148438 3.167969 -2.976562 C 3.007812 -3.246094 2.863281 -3.644531 2.832031 -4.027344 L 9.578125 -4.027344 L 9.578125 -4.488281 C 9.578125 -7.71875 7.398438 -9.117188 5.09375 -9.117188 C 2.035156 -9.117188 0.605469 -6.746094 0.605469 -4.40625 C 0.605469 -1.765625 2.417969 0.175781 5.15625 0.175781 Z M 2.929688 -5.632812 C 2.960938 -5.871094 3.039062 -6.175781 3.277344 -6.460938 C 3.691406 -7.097656 4.359375 -7.414062 5.15625 -7.414062 C 5.933594 -7.414062 6.636719 -7.097656 7.050781 -6.460938 C 7.273438 -6.191406 7.351562 -5.871094 7.382812 -5.632812 Z M 2.929688 -5.632812 "/></g></g></g><g fill="#ffffff" fill-opacity="1"><g transform="translate(283.371275, 15.080923)"><g><path d="M 3.117188 0 L 3.117188 -4.550781 C 3.117188 -5.726562 3.277344 -6.382812 3.644531 -6.8125 C 3.929688 -7.160156 4.375 -7.351562 4.996094 -7.351562 C 5.503906 -7.351562 5.871094 -7.222656 6.125 -6.953125 C 6.429688 -6.621094 6.570312 -6.078125 6.570312 -5.171875 L 6.570312 0 L 8.703125 0 L 8.703125 -5.140625 C 8.703125 -6.03125 8.703125 -6.84375 8.339844 -7.621094 C 7.941406 -8.449219 7.175781 -9.117188 5.554688 -9.117188 C 4.597656 -9.117188 3.835938 -8.800781 3.117188 -7.796875 L 3.117188 -8.925781 L 0.96875 -8.925781 L 0.96875 0 Z M 3.117188 0 "/></g></g></g><g fill="#ffffff" fill-opacity="1"><g transform="translate(293.013966, 15.080923)"><g><path d="M 5.539062 0 L 5.539062 -1.78125 L 4.566406 -1.78125 C 3.898438 -1.78125 3.835938 -2.148438 3.835938 -2.609375 L 3.835938 -7.207031 L 5.554688 -7.207031 L 5.554688 -8.925781 L 3.835938 -8.925781 L 3.835938 -12.140625 L 1.6875 -12.140625 L 1.6875 -8.925781 L 0.367188 -8.925781 L 0.367188 -7.207031 L 1.6875 -7.207031 L 1.6875 -1.957031 C 1.6875 -0.574219 2.449219 0 3.769531 0 Z M 5.539062 0 "/></g></g></g><g fill="#ffffff" fill-opacity="1"><g transform="translate(299.124174, 15.080923)"><g/></g></g><g fill="#ffffff" fill-opacity="1"><g transform="translate(303.404509, 15.080923)"><g><path d="M 6.507812 0.222656 C 9.5 0.222656 11.328125 -1.433594 11.664062 -3.945312 L 9.164062 -3.945312 C 8.925781 -2.515625 7.875 -1.828125 6.445312 -1.828125 C 4.21875 -1.828125 3.007812 -3.546875 3.007812 -6.078125 C 3.007812 -8.59375 4.21875 -10.3125 6.445312 -10.3125 C 7.875 -10.3125 8.941406 -9.628906 9.164062 -8.339844 L 11.664062 -8.339844 C 11.328125 -10.726562 9.5 -12.363281 6.507812 -12.363281 C 2.480469 -12.363281 0.621094 -9.4375 0.621094 -6.078125 C 0.621094 -2.722656 2.480469 0.222656 6.507812 0.222656 Z M 6.507812 0.222656 "/></g></g></g><g fill="#ffffff" fill-opacity="1"><g transform="translate(315.624927, 15.080923)"><g><path d="M 4.390625 0 L 4.390625 -1.78125 L 3.820312 -1.78125 C 3.292969 -1.78125 3.085938 -1.988281 3.085938 -2.59375 L 3.085938 -12.140625 L 0.9375 -12.140625 L 0.9375 -1.957031 C 0.9375 -0.574219 1.6875 0 3.007812 0 Z M 4.390625 0 "/></g></g></g><g fill="#ffffff" fill-opacity="1"><g transform="translate(320.446272, 15.080923)"><g><path d="M 4.089844 0.175781 C 5.140625 0.175781 5.855469 -0.207031 6.507812 -1.128906 L 6.507812 0 L 8.65625 0 L 8.65625 -8.925781 L 6.507812 -8.925781 L 6.507812 -4.390625 C 6.507812 -3.214844 6.363281 -2.5625 6 -2.132812 C 5.695312 -1.765625 5.25 -1.589844 4.628906 -1.589844 C 4.121094 -1.589844 3.753906 -1.71875 3.5 -1.988281 C 3.199219 -2.324219 3.070312 -2.847656 3.070312 -3.769531 L 3.070312 -8.925781 L 0.921875 -8.925781 L 0.921875 -3.789062 C 0.921875 -2.5 1.019531 -1.894531 1.304688 -1.304688 C 1.78125 -0.316406 2.707031 0.175781 4.089844 0.175781 Z M 4.089844 0.175781 "/></g></g></g><g fill="#ffffff" fill-opacity="1"><g transform="translate(330.104859, 15.080923)"><g><path d="M 5.664062 0.175781 C 8.003906 0.175781 9.59375 -1.734375 9.59375 -4.472656 C 9.59375 -7.207031 8.003906 -9.117188 5.664062 -9.117188 C 4.613281 -9.117188 3.851562 -8.816406 3.132812 -7.796875 L 3.132812 -12.140625 L 0.988281 -12.140625 L 0.988281 0 L 3.132812 0 L 3.132812 -1.128906 C 3.851562 -0.128906 4.613281 0.175781 5.664062 0.175781 Z M 5.171875 -1.671875 C 3.804688 -1.671875 2.863281 -2.816406 2.863281 -4.472656 C 2.863281 -6.125 3.804688 -7.273438 5.171875 -7.273438 C 6.539062 -7.273438 7.429688 -6.09375 7.429688 -4.472656 C 7.429688 -2.847656 6.539062 -1.671875 5.171875 -1.671875 Z M 5.171875 -1.671875 "/></g></g></g><g fill="#ffffff" fill-opacity="1"><g transform="translate(340.352202, 15.080923)"><g><path d="M 4.835938 0.175781 C 7.144531 0.175781 8.511719 -0.96875 8.511719 -2.707031 C 8.511719 -4.757812 6.605469 -5.109375 5.027344 -5.410156 C 3.929688 -5.617188 2.976562 -5.792969 2.976562 -6.523438 C 2.976562 -7.082031 3.5 -7.429688 4.359375 -7.429688 C 5.234375 -7.429688 6 -7.050781 6.253906 -6.078125 L 8.273438 -6.078125 C 7.957031 -8.019531 6.460938 -9.117188 4.375 -9.117188 C 2.53125 -9.117188 0.921875 -8.304688 0.921875 -6.445312 C 0.921875 -4.457031 2.738281 -4.074219 4.28125 -3.769531 C 5.410156 -3.546875 6.398438 -3.339844 6.398438 -2.546875 C 6.398438 -1.878906 5.726562 -1.511719 4.820312 -1.511719 C 3.722656 -1.511719 2.945312 -2.035156 2.671875 -3.007812 L 0.558594 -3.007812 C 0.859375 -0.765625 2.800781 0.175781 4.835938 0.175781 Z M 4.835938 0.175781 "/></g></g></g><g fill="#ffffff" fill-opacity="1"><g transform="translate(87.040741, 32.906117)"><g><path d="M 4.367188 0 L 4.367188 -7.152344 L 6.984375 -7.152344 L 6.984375 -8.609375 L 0.113281 -8.609375 L 0.113281 -7.152344 L 2.742188 -7.152344 L 2.742188 0 Z M 4.367188 0 "/></g></g></g><g fill="#ffffff" fill-opacity="1"><g transform="translate(94.155257, 32.906117)"><g><path d="M 3.65625 0.125 C 5.347656 0.125 6.320312 -0.902344 6.691406 -2.132812 L 5.132812 -2.132812 C 4.929688 -1.613281 4.433594 -1.183594 3.710938 -1.183594 C 3.058594 -1.183594 2.539062 -1.523438 2.246094 -2.109375 C 2.132812 -2.300781 2.03125 -2.585938 2.007812 -2.855469 L 6.792969 -2.855469 L 6.792969 -3.183594 C 6.792969 -5.472656 5.246094 -6.464844 3.609375 -6.464844 C 1.445312 -6.464844 0.429688 -4.785156 0.429688 -3.125 C 0.429688 -1.253906 1.714844 0.125 3.65625 0.125 Z M 2.078125 -3.996094 C 2.097656 -4.164062 2.15625 -4.378906 2.324219 -4.582031 C 2.617188 -5.03125 3.09375 -5.257812 3.65625 -5.257812 C 4.207031 -5.257812 4.707031 -5.03125 5 -4.582031 C 5.15625 -4.390625 5.214844 -4.164062 5.234375 -3.996094 Z M 2.078125 -3.996094 "/></g></g></g><g fill="#ffffff" fill-opacity="1"><g transform="translate(101.382526, 32.906117)"><g><path d="M 1.882812 0 L 3.273438 -2.15625 L 4.671875 0 L 6.433594 0 L 4.21875 -3.195312 L 6.441406 -6.332031 L 4.671875 -6.332031 L 3.261719 -4.207031 L 1.882812 -6.332031 L 0.136719 -6.332031 L 2.3125 -3.195312 L 0.148438 0 Z M 1.882812 0 "/></g></g></g><g fill="#ffffff" fill-opacity="1"><g transform="translate(107.955848, 32.906117)"><g><path d="M 2.515625 0.125 C 3.058594 0.125 3.554688 0.0351562 3.949219 -0.226562 C 4.1875 -0.371094 4.367188 -0.574219 4.523438 -0.859375 L 4.523438 0 L 6.046875 0 L 6.046875 -3.296875 C 6.046875 -4.175781 6.046875 -5.167969 5.304688 -5.824219 C 4.828125 -6.261719 4.117188 -6.464844 3.386719 -6.464844 C 2.132812 -6.464844 0.902344 -5.789062 0.675781 -4.308594 L 2.1875 -4.308594 C 2.300781 -4.910156 2.796875 -5.269531 3.375 -5.269531 C 3.734375 -5.269531 4.027344 -5.167969 4.21875 -4.964844 C 4.410156 -4.761719 4.511719 -4.457031 4.523438 -4.074219 L 2.640625 -3.722656 C 2.109375 -3.621094 1.570312 -3.464844 1.164062 -3.183594 C 0.722656 -2.878906 0.441406 -2.414062 0.441406 -1.738281 C 0.441406 -0.53125 1.320312 0.125 2.515625 0.125 Z M 2.890625 -1.070312 C 2.359375 -1.070312 1.964844 -1.320312 1.964844 -1.792969 C 1.964844 -2.007812 2.042969 -2.167969 2.167969 -2.289062 C 2.347656 -2.460938 2.605469 -2.574219 3.046875 -2.652344 L 4.558594 -2.957031 C 4.535156 -2.121094 4.367188 -1.578125 3.703125 -1.253906 C 3.453125 -1.128906 3.171875 -1.070312 2.890625 -1.070312 Z M 2.890625 -1.070312 "/></g></g></g><g fill="#ffffff" fill-opacity="1"><g transform="translate(114.630647, 32.906117)"><g><path d="M 3.429688 0.125 C 5.066406 0.125 6.035156 -0.6875 6.035156 -1.917969 C 6.035156 -3.375 4.683594 -3.621094 3.566406 -3.835938 C 2.789062 -3.984375 2.109375 -4.109375 2.109375 -4.625 C 2.109375 -5.019531 2.484375 -5.269531 3.09375 -5.269531 C 3.710938 -5.269531 4.253906 -5 4.433594 -4.308594 L 5.867188 -4.308594 C 5.640625 -5.6875 4.582031 -6.464844 3.101562 -6.464844 C 1.792969 -6.464844 0.65625 -5.890625 0.65625 -4.570312 C 0.65625 -3.160156 1.941406 -2.890625 3.035156 -2.675781 C 3.835938 -2.515625 4.535156 -2.371094 4.535156 -1.804688 C 4.535156 -1.332031 4.0625 -1.070312 3.417969 -1.070312 C 2.640625 -1.070312 2.085938 -1.445312 1.894531 -2.132812 L 0.394531 -2.132812 C 0.609375 -0.542969 1.984375 0.125 3.429688 0.125 Z M 3.429688 0.125 "/></g></g></g><g fill="#ffffff" fill-opacity="1"><g transform="translate(121.136318, 32.906117)"><g/></g></g><g fill="#ffffff" fill-opacity="1"><g transform="translate(124.169301, 32.906117)"><g><path d="M 4.367188 0 L 4.367188 -7.152344 L 6.984375 -7.152344 L 6.984375 -8.609375 L 0.113281 -8.609375 L 0.113281 -7.152344 L 2.742188 -7.152344 L 2.742188 0 Z M 4.367188 0 "/></g></g></g><g fill="#ffffff" fill-opacity="1"><g transform="translate(131.28382, 32.906117)"><g><path d="M 3.65625 0.125 C 5.347656 0.125 6.320312 -0.902344 6.691406 -2.132812 L 5.132812 -2.132812 C 4.929688 -1.613281 4.433594 -1.183594 3.710938 -1.183594 C 3.058594 -1.183594 2.539062 -1.523438 2.246094 -2.109375 C 2.132812 -2.300781 2.03125 -2.585938 2.007812 -2.855469 L 6.792969 -2.855469 L 6.792969 -3.183594 C 6.792969 -5.472656 5.246094 -6.464844 3.609375 -6.464844 C 1.445312 -6.464844 0.429688 -4.785156 0.429688 -3.125 C 0.429688 -1.253906 1.714844 0.125 3.65625 0.125 Z M 2.078125 -3.996094 C 2.097656 -4.164062 2.15625 -4.378906 2.324219 -4.582031 C 2.617188 -5.03125 3.09375 -5.257812 3.65625 -5.257812 C 4.207031 -5.257812 4.707031 -5.03125 5 -4.582031 C 5.15625 -4.390625 5.214844 -4.164062 5.234375 -3.996094 Z M 2.078125 -3.996094 "/></g></g></g><g fill="#ffffff" fill-opacity="1"><g transform="translate(138.511086, 32.906117)"><g><path d="M 3.644531 0.125 C 5.15625 0.125 6.339844 -0.710938 6.636719 -2.132812 L 4.988281 -2.132812 C 4.828125 -1.5 4.378906 -1.117188 3.644531 -1.117188 C 2.664062 -1.117188 1.984375 -1.941406 1.984375 -3.203125 C 1.984375 -4.421875 2.664062 -5.222656 3.644531 -5.222656 C 4.300781 -5.222656 4.761719 -4.898438 4.953125 -4.308594 L 6.613281 -4.308594 C 6.296875 -5.621094 5.167969 -6.464844 3.644531 -6.464844 C 1.726562 -6.464844 0.429688 -5.121094 0.429688 -3.203125 C 0.429688 -1.21875 1.738281 0.125 3.644531 0.125 Z M 3.644531 0.125 "/></g></g></g><g fill="#ffffff" fill-opacity="1"><g transform="translate(145.524131, 32.906117)"><g><path d="M 2.222656 0 L 2.222656 -3.226562 C 2.222656 -4.0625 2.324219 -4.523438 2.585938 -4.828125 C 2.789062 -5.078125 3.113281 -5.214844 3.554688 -5.214844 C 3.914062 -5.214844 4.175781 -5.121094 4.355469 -4.929688 C 4.570312 -4.695312 4.660156 -4.308594 4.660156 -3.667969 L 4.660156 0 L 6.183594 0 L 6.183594 -3.644531 C 6.183594 -4.277344 6.183594 -4.851562 5.914062 -5.40625 C 5.640625 -5.992188 5.089844 -6.464844 3.9375 -6.464844 C 3.261719 -6.464844 2.730469 -6.238281 2.222656 -5.527344 L 2.222656 -8.609375 L 0.699219 -8.609375 L 0.699219 0 Z M 2.222656 0 "/></g></g></g><g fill="#ffffff" fill-opacity="1"><g transform="translate(152.356772, 32.906117)"><g/></g></g><g fill="#ffffff" fill-opacity="1"><g transform="translate(155.389753, 32.906117)"><g><path d="M 4.152344 0.15625 C 6.613281 0.15625 7.628906 -1.171875 7.628906 -3.125 L 7.628906 -8.609375 L 5.992188 -8.609375 L 5.992188 -3.125 C 5.992188 -2.054688 5.539062 -1.296875 4.152344 -1.296875 C 2.765625 -1.296875 2.3125 -2.054688 2.3125 -3.125 L 2.3125 -8.609375 L 0.675781 -8.609375 L 0.675781 -3.125 C 0.675781 -1.171875 1.679688 0.15625 4.152344 0.15625 Z M 4.152344 0.15625 "/></g></g></g><g fill="#ffffff" fill-opacity="1"><g transform="translate(163.710692, 32.906117)"><g><path d="M 2.210938 0 L 2.210938 -3.226562 C 2.210938 -4.0625 2.324219 -4.523438 2.585938 -4.828125 C 2.789062 -5.078125 3.101562 -5.214844 3.542969 -5.214844 C 3.90625 -5.214844 4.164062 -5.121094 4.34375 -4.929688 C 4.558594 -4.695312 4.660156 -4.308594 4.660156 -3.667969 L 4.660156 0 L 6.171875 0 L 6.171875 -3.644531 C 6.171875 -4.277344 6.171875 -4.851562 5.914062 -5.40625 C 5.628906 -5.992188 5.089844 -6.464844 3.9375 -6.464844 C 3.261719 -6.464844 2.71875 -6.238281 2.210938 -5.527344 L 2.210938 -6.332031 L 0.6875 -6.332031 L 0.6875 0 Z M 2.210938 0 "/></g></g></g><g fill="#ffffff" fill-opacity="1"><g transform="translate(170.543333, 32.906117)"><g><path d="M 1.457031 -7.03125 C 1.964844 -7.03125 2.390625 -7.367188 2.390625 -7.898438 C 2.390625 -8.40625 1.964844 -8.769531 1.457031 -8.769531 C 0.9375 -8.769531 0.519531 -8.40625 0.519531 -7.898438 C 0.519531 -7.367188 0.9375 -7.03125 1.457031 -7.03125 Z M 2.210938 0 L 2.210938 -6.332031 L 0.6875 -6.332031 L 0.6875 0 Z M 2.210938 0 "/></g></g></g><g fill="#ffffff" fill-opacity="1"><g transform="translate(173.463561, 32.906117)"><g><path d="M 3.679688 0 L 6.027344 -6.332031 L 4.402344 -6.332031 L 3.070312 -2.335938 L 1.761719 -6.332031 L 0.136719 -6.332031 L 2.472656 0 Z M 3.679688 0 "/></g></g></g><g fill="#ffffff" fill-opacity="1"><g transform="translate(179.63098, 32.906117)"><g><path d="M 3.65625 0.125 C 5.347656 0.125 6.320312 -0.902344 6.691406 -2.132812 L 5.132812 -2.132812 C 4.929688 -1.613281 4.433594 -1.183594 3.710938 -1.183594 C 3.058594 -1.183594 2.539062 -1.523438 2.246094 -2.109375 C 2.132812 -2.300781 2.03125 -2.585938 2.007812 -2.855469 L 6.792969 -2.855469 L 6.792969 -3.183594 C 6.792969 -5.472656 5.246094 -6.464844 3.609375 -6.464844 C 1.445312 -6.464844 0.429688 -4.785156 0.429688 -3.125 C 0.429688 -1.253906 1.714844 0.125 3.65625 0.125 Z M 2.078125 -3.996094 C 2.097656 -4.164062 2.15625 -4.378906 2.324219 -4.582031 C 2.617188 -5.03125 3.09375 -5.257812 3.65625 -5.257812 C 4.207031 -5.257812 4.707031 -5.03125 5 -4.582031 C 5.15625 -4.390625 5.214844 -4.164062 5.234375 -3.996094 Z M 2.078125 -3.996094 "/></g></g></g><g fill="#ffffff" fill-opacity="1"><g transform="translate(186.858246, 32.906117)"><g><path d="M 2.210938 0 L 2.210938 -2.933594 C 2.210938 -3.769531 2.382812 -4.277344 2.71875 -4.613281 C 2.96875 -4.851562 3.328125 -5 3.847656 -5 L 4.199219 -5 L 4.199219 -6.464844 L 4.015625 -6.464844 C 3.273438 -6.464844 2.695312 -6.238281 2.210938 -5.574219 L 2.210938 -6.332031 L 0.6875 -6.332031 L 0.6875 0 Z M 2.210938 0 "/></g></g></g><g fill="#ffffff" fill-opacity="1"><g transform="translate(191.278047, 32.906117)"><g><path d="M 3.429688 0.125 C 5.066406 0.125 6.035156 -0.6875 6.035156 -1.917969 C 6.035156 -3.375 4.683594 -3.621094 3.566406 -3.835938 C 2.789062 -3.984375 2.109375 -4.109375 2.109375 -4.625 C 2.109375 -5.019531 2.484375 -5.269531 3.09375 -5.269531 C 3.710938 -5.269531 4.253906 -5 4.433594 -4.308594 L 5.867188 -4.308594 C 5.640625 -5.6875 4.582031 -6.464844 3.101562 -6.464844 C 1.792969 -6.464844 0.65625 -5.890625 0.65625 -4.570312 C 0.65625 -3.160156 1.941406 -2.890625 3.035156 -2.675781 C 3.835938 -2.515625 4.535156 -2.371094 4.535156 -1.804688 C 4.535156 -1.332031 4.0625 -1.070312 3.417969 -1.070312 C 2.640625 -1.070312 2.085938 -1.445312 1.894531 -2.132812 L 0.394531 -2.132812 C 0.609375 -0.542969 1.984375 0.125 3.429688 0.125 Z M 3.429688 0.125 "/></g></g></g><g fill="#ffffff" fill-opacity="1"><g transform="translate(197.783715, 32.906117)"><g><path d="M 1.457031 -7.03125 C 1.964844 -7.03125 2.390625 -7.367188 2.390625 -7.898438 C 2.390625 -8.40625 1.964844 -8.769531 1.457031 -8.769531 C 0.9375 -8.769531 0.519531 -8.40625 0.519531 -7.898438 C 0.519531 -7.367188 0.9375 -7.03125 1.457031 -7.03125 Z M 2.210938 0 L 2.210938 -6.332031 L 0.6875 -6.332031 L 0.6875 0 Z M 2.210938 0 "/></g></g></g><g fill="#ffffff" fill-opacity="1"><g transform="translate(200.703943, 32.906117)"><g><path d="M 3.925781 0 L 3.925781 -1.265625 L 3.238281 -1.265625 C 2.765625 -1.265625 2.71875 -1.523438 2.71875 -1.851562 L 2.71875 -5.113281 L 3.9375 -5.113281 L 3.9375 -6.332031 L 2.71875 -6.332031 L 2.71875 -8.609375 L 1.195312 -8.609375 L 1.195312 -6.332031 L 0.257812 -6.332031 L 0.257812 -5.113281 L 1.195312 -5.113281 L 1.195312 -1.386719 C 1.195312 -0.40625 1.738281 0 2.675781 0 Z M 3.925781 0 "/></g></g></g><g fill="#ffffff" fill-opacity="1"><g transform="translate(205.033542, 32.906117)"><g><path d="M 1.839844 2.28125 C 2.878906 2.28125 3.363281 1.875 3.757812 0.746094 L 6.21875 -6.332031 L 4.582031 -6.332031 L 3.25 -1.679688 L 1.773438 -6.332031 L 0.125 -6.332031 L 2.460938 0.0234375 L 2.289062 0.472656 C 2.109375 0.949219 1.875 0.992188 1.476562 0.992188 L 0.789062 0.992188 L 0.789062 2.28125 Z M 1.839844 2.28125 "/></g></g></g><g fill="#ffffff" fill-opacity="1"><g transform="translate(211.415181, 32.906117)"><g><path d="M 2.730469 -4.1875 C 4.007812 -4.1875 5.019531 -5.203125 5.019531 -6.476562 C 5.019531 -7.753906 4.007812 -8.769531 2.730469 -8.769531 C 1.457031 -8.769531 0.441406 -7.753906 0.441406 -6.476562 C 0.441406 -5.203125 1.457031 -4.1875 2.730469 -4.1875 Z M 2.730469 -4.570312 C 1.679688 -4.570312 0.835938 -5.417969 0.835938 -6.476562 C 0.835938 -7.527344 1.679688 -8.371094 2.730469 -8.371094 C 3.792969 -8.371094 4.636719 -7.527344 4.636719 -6.476562 C 4.636719 -5.417969 3.792969 -4.570312 2.730469 -4.570312 Z M 2.335938 -5.132812 L 2.335938 -6.195312 L 2.898438 -6.195312 L 3.304688 -5.132812 L 3.894531 -5.132812 L 3.40625 -6.332031 C 3.710938 -6.421875 3.824219 -6.703125 3.824219 -7.007812 C 3.824219 -7.570312 3.464844 -7.796875 2.980469 -7.796875 L 1.78125 -7.796875 L 1.78125 -5.132812 Z M 2.335938 -7.3125 L 2.898438 -7.3125 C 3.136719 -7.3125 3.273438 -7.1875 3.273438 -6.984375 C 3.273438 -6.78125 3.136719 -6.667969 2.898438 -6.667969 L 2.335938 -6.667969 Z M 2.335938 -7.3125 "/></g></g></g></svg>